<mxfile host="65bd71144e" modified="2020-11-04T08:47:50.642Z" agent="5.0 (Macintosh; Intel Mac OS X 10_15_7) AppleWebKit/537.36 (KHTML, like Gecko) Code/1.50.1 Chrome/83.0.4103.122 Electron/9.2.1 Safari/537.36" etag="YXw6mPKKHaZfutF0l5ZV" version="13.6.5">
    <diagram id="gfMXXTY8nDe1PLYOiZCB" name="Page-1">
        <mxGraphModel dx="967" dy="705" grid="1" gridSize="10" guides="1" tooltips="1" connect="1" arrows="1" fold="1" page="1" pageScale="1" pageWidth="827" pageHeight="1169" math="0" shadow="0">
            <root>
                <mxCell id="0"/>
                <mxCell id="1" parent="0"/>
                <mxCell id="44" value="" style="rounded=0;whiteSpace=wrap;html=1;dashed=1;" parent="1" vertex="1">
                    <mxGeometry x="40" y="280" width="750" height="490" as="geometry"/>
                </mxCell>
                <mxCell id="3" value="" style="whiteSpace=wrap;html=1;aspect=fixed;" parent="1" vertex="1">
                    <mxGeometry x="61" y="400" width="340" height="340" as="geometry"/>
                </mxCell>
                <mxCell id="4" value="" style="whiteSpace=wrap;html=1;aspect=fixed;strokeColor=#F0F0F0;" parent="1" vertex="1">
                    <mxGeometry x="427" y="400" width="340" height="340" as="geometry"/>
                </mxCell>
                <mxCell id="5" value="NODE1" style="text;html=1;align=center;verticalAlign=middle;resizable=0;points=[];autosize=1;fontStyle=5" parent="1" vertex="1">
                    <mxGeometry x="61" y="400" width="60" height="20" as="geometry"/>
                </mxCell>
                <mxCell id="6" value="NODE2" style="text;html=1;align=center;verticalAlign=middle;resizable=0;points=[];autosize=1;fontStyle=5" parent="1" vertex="1">
                    <mxGeometry x="427" y="400" width="60" height="20" as="geometry"/>
                </mxCell>
                <mxCell id="7" value="" style="group;fillColor=#0050ef;strokeColor=#001DBC;fontColor=#ffffff;" parent="1" vertex="1" connectable="0">
                    <mxGeometry x="112" y="570" width="125" height="115" as="geometry"/>
                </mxCell>
                <mxCell id="8" value="" style="rounded=0;whiteSpace=wrap;html=1;" parent="7" vertex="1">
                    <mxGeometry width="125" height="115" as="geometry"/>
                </mxCell>
                <mxCell id="9" value="roy-nginx [:80]" style="shape=process;whiteSpace=wrap;html=1;backgroundOutline=1;" parent="7" vertex="1">
                    <mxGeometry x="2.5" y="32.5" width="120" height="60" as="geometry"/>
                </mxCell>
                <mxCell id="10" value="POD" style="text;html=1;align=center;verticalAlign=middle;resizable=0;points=[];autosize=1;fontStyle=1" parent="7" vertex="1">
                    <mxGeometry width="40" height="20" as="geometry"/>
                </mxCell>
                <mxCell id="11" value="" style="group" parent="1" vertex="1" connectable="0">
                    <mxGeometry x="447" y="590" width="125" height="115" as="geometry"/>
                </mxCell>
                <mxCell id="12" value="" style="rounded=0;whiteSpace=wrap;html=1;" parent="11" vertex="1">
                    <mxGeometry width="125" height="115" as="geometry"/>
                </mxCell>
                <mxCell id="13" value="roy-nginx [:80]" style="shape=process;whiteSpace=wrap;html=1;backgroundOutline=1;" parent="11" vertex="1">
                    <mxGeometry x="2.5" y="32.5" width="120" height="60" as="geometry"/>
                </mxCell>
                <mxCell id="14" value="POD" style="text;html=1;align=center;verticalAlign=middle;resizable=0;points=[];autosize=1;fontStyle=1" parent="11" vertex="1">
                    <mxGeometry width="40" height="20" as="geometry"/>
                </mxCell>
                <mxCell id="23" style="edgeStyle=none;rounded=0;orthogonalLoop=1;jettySize=auto;html=1;exitX=0.323;exitY=1.027;exitDx=0;exitDy=0;entryX=0.5;entryY=0;entryDx=0;entryDy=0;dashed=1;endArrow=none;endFill=0;exitPerimeter=0;" parent="1" source="46" target="36" edge="1">
                    <mxGeometry relative="1" as="geometry">
                        <mxPoint x="420" y="230" as="sourcePoint"/>
                    </mxGeometry>
                </mxCell>
                <mxCell id="24" style="edgeStyle=none;rounded=0;orthogonalLoop=1;jettySize=auto;html=1;exitX=0.75;exitY=1;exitDx=0;exitDy=0;entryX=0.5;entryY=0;entryDx=0;entryDy=0;dashed=1;endArrow=none;endFill=0;" parent="1" source="46" target="31" edge="1">
                    <mxGeometry relative="1" as="geometry">
                        <mxPoint x="460" y="230" as="sourcePoint"/>
                    </mxGeometry>
                </mxCell>
                <mxCell id="32" value="" style="group" parent="1" vertex="1" connectable="0">
                    <mxGeometry x="560" y="340" width="120" height="120" as="geometry"/>
                </mxCell>
                <mxCell id="26" value="NodePort" style="rounded=1;whiteSpace=wrap;html=1;strokeColor=#F0F0F0;" parent="32" vertex="1">
                    <mxGeometry y="30" width="120" height="60" as="geometry"/>
                </mxCell>
                <mxCell id="27" value="target :80" style="rounded=1;whiteSpace=wrap;html=1;strokeColor=#F0F0F0;" parent="32" vertex="1">
                    <mxGeometry x="20" y="90" width="80" height="30" as="geometry"/>
                </mxCell>
                <mxCell id="31" value="node-port :35000" style="rounded=1;whiteSpace=wrap;html=1;strokeColor=#F0F0F0;" parent="32" vertex="1">
                    <mxGeometry x="20" width="80" height="30" as="geometry"/>
                </mxCell>
                <mxCell id="33" value="" style="group" parent="1" vertex="1" connectable="0">
                    <mxGeometry x="160" y="340" width="120" height="120" as="geometry"/>
                </mxCell>
                <mxCell id="34" value="NodePort" style="rounded=1;whiteSpace=wrap;html=1;strokeColor=#F0F0F0;" parent="33" vertex="1">
                    <mxGeometry y="30" width="120" height="60" as="geometry"/>
                </mxCell>
                <mxCell id="35" value="target :80" style="rounded=1;whiteSpace=wrap;html=1;strokeColor=#F0F0F0;" parent="33" vertex="1">
                    <mxGeometry x="20" y="90" width="80" height="30" as="geometry"/>
                </mxCell>
                <mxCell id="36" value="node-port :35000" style="rounded=1;whiteSpace=wrap;html=1;strokeColor=#F0F0F0;" parent="33" vertex="1">
                    <mxGeometry x="20" width="80" height="30" as="geometry"/>
                </mxCell>
                <mxCell id="39" style="rounded=0;orthogonalLoop=1;jettySize=auto;html=1;exitX=0.5;exitY=1;exitDx=0;exitDy=0;entryX=0.5;entryY=0;entryDx=0;entryDy=0;dashed=1;" parent="1" source="27" target="12" edge="1">
                    <mxGeometry relative="1" as="geometry"/>
                </mxCell>
                <mxCell id="40" style="edgeStyle=none;rounded=0;orthogonalLoop=1;jettySize=auto;html=1;entryX=0.5;entryY=0;entryDx=0;entryDy=0;dashed=1;" parent="1" source="35" target="8" edge="1">
                    <mxGeometry relative="1" as="geometry"/>
                </mxCell>
                <mxCell id="45" value="&lt;b&gt;node/ec2 cluster&lt;/b&gt;" style="text;html=1;align=center;verticalAlign=middle;resizable=0;points=[];autosize=1;" parent="1" vertex="1">
                    <mxGeometry x="40" y="280" width="110" height="20" as="geometry"/>
                </mxCell>
                <mxCell id="47" value="" style="group" parent="1" vertex="1" connectable="0">
                    <mxGeometry x="355" y="110" width="120" height="120" as="geometry"/>
                </mxCell>
                <mxCell id="43" value="" style="group" parent="47" vertex="1" connectable="0">
                    <mxGeometry width="120" height="120" as="geometry"/>
                </mxCell>
                <mxCell id="19" value="" style="group" parent="43" vertex="1" connectable="0">
                    <mxGeometry y="30" width="120" height="90" as="geometry"/>
                </mxCell>
                <mxCell id="20" value="LoadBalancer" style="rounded=1;whiteSpace=wrap;html=1;strokeColor=#F0F0F0;" parent="19" vertex="1">
                    <mxGeometry width="120" height="60" as="geometry"/>
                </mxCell>
                <mxCell id="46" value="target:35000" style="rounded=1;whiteSpace=wrap;html=1;strokeColor=#F0F0F0;" parent="19" vertex="1">
                    <mxGeometry x="20" y="60" width="80" height="30" as="geometry"/>
                </mxCell>
                <mxCell id="37" value="port :80" style="rounded=1;whiteSpace=wrap;html=1;strokeColor=#F0F0F0;" parent="43" vertex="1">
                    <mxGeometry x="70" width="50" height="30" as="geometry"/>
                </mxCell>
                <mxCell id="41" value="public-ip" style="rounded=1;whiteSpace=wrap;html=1;strokeColor=#F0F0F0;" parent="43" vertex="1">
                    <mxGeometry width="66" height="30" as="geometry"/>
                </mxCell>
                <mxCell id="48" value="public-ip" style="rounded=1;whiteSpace=wrap;html=1;strokeColor=#F0F0F0;" vertex="1" parent="1">
                    <mxGeometry x="427" y="370" width="66" height="30" as="geometry"/>
                </mxCell>
                <mxCell id="52" style="rounded=0;orthogonalLoop=1;jettySize=auto;html=1;exitX=0.5;exitY=0;exitDx=0;exitDy=0;dashed=1;startArrow=classic;startFill=1;endArrow=none;endFill=0;" edge="1" parent="1" source="49">
                    <mxGeometry relative="1" as="geometry">
                        <mxPoint x="94" y="130" as="targetPoint"/>
                    </mxGeometry>
                </mxCell>
                <mxCell id="49" value="public-ip" style="rounded=1;whiteSpace=wrap;html=1;strokeColor=#F0F0F0;" vertex="1" parent="1">
                    <mxGeometry x="61" y="370" width="66" height="30" as="geometry"/>
                </mxCell>
                <mxCell id="50" style="edgeStyle=orthogonalEdgeStyle;rounded=0;orthogonalLoop=1;jettySize=auto;html=1;dashed=1;endArrow=none;endFill=0;startArrow=classic;startFill=1;" edge="1" parent="1" source="41">
                    <mxGeometry relative="1" as="geometry">
                        <mxPoint x="388" y="40" as="targetPoint"/>
                    </mxGeometry>
                </mxCell>
            </root>
        </mxGraphModel>
    </diagram>
</mxfile>